<svg xmlns="http://www.w3.org/2000/svg" xmlns:xlink="http://www.w3.org/1999/xlink" width="250" zoomAndPan="magnify" viewBox="0 0 187.5 187.499992" height="250" preserveAspectRatio="xMidYMid meet" version="1.0"><defs><clipPath id="0aa3c66d6f"><path d="M 63 0 L 187 0 L 187 102 L 63 102 Z M 63 0 " clip-rule="nonzero"/></clipPath><clipPath id="f0d18d6507"><path d="M -8.355469 21.941406 L 185.640625 0.0390625 L 197.722656 107.074219 L 3.726562 128.972656 Z M -8.355469 21.941406 " clip-rule="nonzero"/></clipPath><clipPath id="ef0c0a58a6"><path d="M -8.355469 21.941406 L 185.640625 0.0390625 L 197.722656 107.074219 L 3.726562 128.972656 Z M -8.355469 21.941406 " clip-rule="nonzero"/></clipPath><clipPath id="655353eca1"><path d="M 64 18 L 179 18 L 179 103 L 64 103 Z M 64 18 " clip-rule="nonzero"/></clipPath><clipPath id="739c934d4e"><path d="M -8.355469 21.941406 L 185.640625 0.0390625 L 197.722656 107.074219 L 3.726562 128.972656 Z M -8.355469 21.941406 " clip-rule="nonzero"/></clipPath><clipPath id="537cea2a27"><path d="M -8.355469 21.941406 L 185.640625 0.0390625 L 197.722656 107.074219 L 3.726562 128.972656 Z M -8.355469 21.941406 " clip-rule="nonzero"/></clipPath><clipPath id="91e447d761"><path d="M 65 38 L 172 38 L 172 104 L 65 104 Z M 65 38 " clip-rule="nonzero"/></clipPath><clipPath id="87c8096373"><path d="M -8.355469 21.941406 L 185.640625 0.0390625 L 197.722656 107.074219 L 3.726562 128.972656 Z M -8.355469 21.941406 " clip-rule="nonzero"/></clipPath><clipPath id="78314c7ac9"><path d="M -8.355469 21.941406 L 185.640625 0.0390625 L 197.722656 107.074219 L 3.726562 128.972656 Z M -8.355469 21.941406 " clip-rule="nonzero"/></clipPath><clipPath id="448894dfb7"><path d="M 67 55 L 164 55 L 164 108 L 67 108 Z M 67 55 " clip-rule="nonzero"/></clipPath><clipPath id="e092ce2bcc"><path d="M -8.355469 21.941406 L 185.640625 0.0390625 L 197.722656 107.074219 L 3.726562 128.972656 Z M -8.355469 21.941406 " clip-rule="nonzero"/></clipPath><clipPath id="dddfeb6ae8"><path d="M -8.355469 21.941406 L 185.640625 0.0390625 L 197.722656 107.074219 L 3.726562 128.972656 Z M -8.355469 21.941406 " clip-rule="nonzero"/></clipPath><clipPath id="d77cb154aa"><path d="M 2 79 L 98 79 L 98 127 L 2 127 Z M 2 79 " clip-rule="nonzero"/></clipPath><clipPath id="f64541c1fc"><path d="M -8.355469 21.941406 L 185.640625 0.0390625 L 197.722656 107.074219 L 3.726562 128.972656 Z M -8.355469 21.941406 " clip-rule="nonzero"/></clipPath><clipPath id="748555ec20"><path d="M -8.355469 21.941406 L 185.640625 0.0390625 L 197.722656 107.074219 L 3.726562 128.972656 Z M -8.355469 21.941406 " clip-rule="nonzero"/></clipPath><clipPath id="419489fa14"><path d="M 2 62 L 87 62 L 87 122 L 2 122 Z M 2 62 " clip-rule="nonzero"/></clipPath><clipPath id="9183cfc21b"><path d="M -8.355469 21.941406 L 185.640625 0.0390625 L 197.722656 107.074219 L 3.726562 128.972656 Z M -8.355469 21.941406 " clip-rule="nonzero"/></clipPath><clipPath id="6f5c6e6289"><path d="M -8.355469 21.941406 L 185.640625 0.0390625 L 197.722656 107.074219 L 3.726562 128.972656 Z M -8.355469 21.941406 " clip-rule="nonzero"/></clipPath><clipPath id="9d5b4c6712"><path d="M 29 89 L 63 89 L 63 112 L 29 112 Z M 29 89 " clip-rule="nonzero"/></clipPath><clipPath id="b7feef4c55"><path d="M -8.355469 21.941406 L 185.640625 0.0390625 L 197.722656 107.074219 L 3.726562 128.972656 Z M -8.355469 21.941406 " clip-rule="nonzero"/></clipPath><clipPath id="7f55f0b962"><path d="M -8.355469 21.941406 L 185.640625 0.0390625 L 197.722656 107.074219 L 3.726562 128.972656 Z M -8.355469 21.941406 " clip-rule="nonzero"/></clipPath><clipPath id="0b5050227c"><path d="M 35 83 L 69 83 L 69 108 L 35 108 Z M 35 83 " clip-rule="nonzero"/></clipPath><clipPath id="f9f2db8d10"><path d="M -8.355469 21.941406 L 185.640625 0.0390625 L 197.722656 107.074219 L 3.726562 128.972656 Z M -8.355469 21.941406 " clip-rule="nonzero"/></clipPath><clipPath id="39fce4367d"><path d="M -8.355469 21.941406 L 185.640625 0.0390625 L 197.722656 107.074219 L 3.726562 128.972656 Z M -8.355469 21.941406 " clip-rule="nonzero"/></clipPath><clipPath id="10ec11463b"><path d="M 71 68 L 94 68 L 94 103 L 71 103 Z M 71 68 " clip-rule="nonzero"/></clipPath><clipPath id="ce8916bf06"><path d="M -8.355469 21.941406 L 185.640625 0.0390625 L 197.722656 107.074219 L 3.726562 128.972656 Z M -8.355469 21.941406 " clip-rule="nonzero"/></clipPath><clipPath id="bd99e79fa3"><path d="M -8.355469 21.941406 L 185.640625 0.0390625 L 197.722656 107.074219 L 3.726562 128.972656 Z M -8.355469 21.941406 " clip-rule="nonzero"/></clipPath><clipPath id="0747a97f8b"><path d="M 71 67 L 87 67 L 87 99 L 71 99 Z M 71 67 " clip-rule="nonzero"/></clipPath><clipPath id="313af3396f"><path d="M -8.355469 21.941406 L 185.640625 0.0390625 L 197.722656 107.074219 L 3.726562 128.972656 Z M -8.355469 21.941406 " clip-rule="nonzero"/></clipPath><clipPath id="fbba2d73b6"><path d="M -8.355469 21.941406 L 185.640625 0.0390625 L 197.722656 107.074219 L 3.726562 128.972656 Z M -8.355469 21.941406 " clip-rule="nonzero"/></clipPath><clipPath id="92b4b15510"><path d="M 33 97 L 55 97 L 55 110 L 33 110 Z M 33 97 " clip-rule="nonzero"/></clipPath><clipPath id="eecef8b797"><path d="M -8.355469 21.941406 L 185.640625 0.0390625 L 197.722656 107.074219 L 3.726562 128.972656 Z M -8.355469 21.941406 " clip-rule="nonzero"/></clipPath><clipPath id="97eb3e26ca"><path d="M -8.355469 21.941406 L 185.640625 0.0390625 L 197.722656 107.074219 L 3.726562 128.972656 Z M -8.355469 21.941406 " clip-rule="nonzero"/></clipPath><clipPath id="f86708f428"><path d="M 38 91 L 60 91 L 60 105 L 38 105 Z M 38 91 " clip-rule="nonzero"/></clipPath><clipPath id="fea98e08ab"><path d="M -8.355469 21.941406 L 185.640625 0.0390625 L 197.722656 107.074219 L 3.726562 128.972656 Z M -8.355469 21.941406 " clip-rule="nonzero"/></clipPath><clipPath id="d96c7d6955"><path d="M -8.355469 21.941406 L 185.640625 0.0390625 L 197.722656 107.074219 L 3.726562 128.972656 Z M -8.355469 21.941406 " clip-rule="nonzero"/></clipPath><clipPath id="864ab80399"><path d="M 42 86 L 64 86 L 64 99 L 42 99 Z M 42 86 " clip-rule="nonzero"/></clipPath><clipPath id="84749a2cde"><path d="M -8.355469 21.941406 L 185.640625 0.0390625 L 197.722656 107.074219 L 3.726562 128.972656 Z M -8.355469 21.941406 " clip-rule="nonzero"/></clipPath><clipPath id="d19eafc496"><path d="M -8.355469 21.941406 L 185.640625 0.0390625 L 197.722656 107.074219 L 3.726562 128.972656 Z M -8.355469 21.941406 " clip-rule="nonzero"/></clipPath><clipPath id="53d6ccbda4"><path d="M 22 67 L 53 67 L 53 104 L 22 104 Z M 22 67 " clip-rule="nonzero"/></clipPath><clipPath id="c8ae152ea9"><path d="M -8.355469 21.941406 L 185.640625 0.0390625 L 197.722656 107.074219 L 3.726562 128.972656 Z M -8.355469 21.941406 " clip-rule="nonzero"/></clipPath><clipPath id="03a5adc549"><path d="M -8.355469 21.941406 L 185.640625 0.0390625 L 197.722656 107.074219 L 3.726562 128.972656 Z M -8.355469 21.941406 " clip-rule="nonzero"/></clipPath><clipPath id="ec704aa9ab"><path d="M 2 77 L 94 77 L 94 122 L 2 122 Z M 2 77 " clip-rule="nonzero"/></clipPath><clipPath id="e3cecc7283"><path d="M -8.355469 21.941406 L 185.640625 0.0390625 L 197.722656 107.074219 L 3.726562 128.972656 Z M -8.355469 21.941406 " clip-rule="nonzero"/></clipPath><clipPath id="651fa0e15a"><path d="M -8.355469 21.941406 L 185.640625 0.0390625 L 197.722656 107.074219 L 3.726562 128.972656 Z M -8.355469 21.941406 " clip-rule="nonzero"/></clipPath><clipPath id="7b48e85438"><path d="M 22 76 L 54 76 L 54 104 L 22 104 Z M 22 76 " clip-rule="nonzero"/></clipPath><clipPath id="b6aeae1907"><path d="M -8.355469 21.941406 L 185.640625 0.0390625 L 197.722656 107.074219 L 3.726562 128.972656 Z M -8.355469 21.941406 " clip-rule="nonzero"/></clipPath><clipPath id="31085f0594"><path d="M -8.355469 21.941406 L 185.640625 0.0390625 L 197.722656 107.074219 L 3.726562 128.972656 Z M -8.355469 21.941406 " clip-rule="nonzero"/></clipPath><clipPath id="e69bfeec88"><path d="M 38 79 L 51 79 L 51 89 L 38 89 Z M 38 79 " clip-rule="nonzero"/></clipPath><clipPath id="bb32cda5f1"><path d="M -8.355469 21.941406 L 185.640625 0.0390625 L 197.722656 107.074219 L 3.726562 128.972656 Z M -8.355469 21.941406 " clip-rule="nonzero"/></clipPath><clipPath id="e34ff2f061"><path d="M -8.355469 21.941406 L 185.640625 0.0390625 L 197.722656 107.074219 L 3.726562 128.972656 Z M -8.355469 21.941406 " clip-rule="nonzero"/></clipPath><clipPath id="3ffebee2ea"><path d="M 31 89 L 44 89 L 44 99 L 31 99 Z M 31 89 " clip-rule="nonzero"/></clipPath><clipPath id="0ae3bb634a"><path d="M -8.355469 21.941406 L 185.640625 0.0390625 L 197.722656 107.074219 L 3.726562 128.972656 Z M -8.355469 21.941406 " clip-rule="nonzero"/></clipPath><clipPath id="debf18b00a"><path d="M -8.355469 21.941406 L 185.640625 0.0390625 L 197.722656 107.074219 L 3.726562 128.972656 Z M -8.355469 21.941406 " clip-rule="nonzero"/></clipPath><clipPath id="67661468ed"><path d="M 27 93 L 40 93 L 40 103 L 27 103 Z M 27 93 " clip-rule="nonzero"/></clipPath><clipPath id="4a85cac983"><path d="M -8.355469 21.941406 L 185.640625 0.0390625 L 197.722656 107.074219 L 3.726562 128.972656 Z M -8.355469 21.941406 " clip-rule="nonzero"/></clipPath><clipPath id="79f034c787"><path d="M -8.355469 21.941406 L 185.640625 0.0390625 L 197.722656 107.074219 L 3.726562 128.972656 Z M -8.355469 21.941406 " clip-rule="nonzero"/></clipPath><clipPath id="5e489a5a17"><path d="M 23 98 L 35 98 L 35 107 L 23 107 Z M 23 98 " clip-rule="nonzero"/></clipPath><clipPath id="2ae9de1e3c"><path d="M -8.355469 21.941406 L 185.640625 0.0390625 L 197.722656 107.074219 L 3.726562 128.972656 Z M -8.355469 21.941406 " clip-rule="nonzero"/></clipPath><clipPath id="c2c350cbf0"><path d="M -8.355469 21.941406 L 185.640625 0.0390625 L 197.722656 107.074219 L 3.726562 128.972656 Z M -8.355469 21.941406 " clip-rule="nonzero"/></clipPath><clipPath id="01aedf5f04"><path d="M 34 84 L 48 84 L 48 94 L 34 94 Z M 34 84 " clip-rule="nonzero"/></clipPath><clipPath id="2a47c2680e"><path d="M -8.355469 21.941406 L 185.640625 0.0390625 L 197.722656 107.074219 L 3.726562 128.972656 Z M -8.355469 21.941406 " clip-rule="nonzero"/></clipPath><clipPath id="fdd8146e48"><path d="M -8.355469 21.941406 L 185.640625 0.0390625 L 197.722656 107.074219 L 3.726562 128.972656 Z M -8.355469 21.941406 " clip-rule="nonzero"/></clipPath><clipPath id="b0470ef004"><path d="M 103 96.210938 L 186.871094 96.210938 L 186.871094 148 L 103 148 Z M 103 96.210938 " clip-rule="nonzero"/></clipPath><clipPath id="b6afe64b31"><path d="M 54 159 L 147 159 L 147 170.265625 L 54 170.265625 Z M 54 159 " clip-rule="nonzero"/></clipPath></defs><g clip-path="url(#0aa3c66d6f)"><g clip-path="url(#f0d18d6507)"><g clip-path="url(#ef0c0a58a6)"><path fill="#b3fa04" d="M 167.28125 11.472656 C 160.195312 12.878906 152.851562 12.605469 145.636719 13.140625 C 129.300781 14.347656 113.074219 20.070312 101.253906 33.453125 C 93.207031 42.566406 87.570312 54.757812 82.167969 66.871094 C 76.761719 78.996094 71.390625 91.351562 63.734375 101.019531 C 63.65625 101.117188 63.578125 101.203125 63.5 101.300781 C 65.832031 99.070312 70.09375 96.570312 72.101562 93.898438 C 79.128906 84.558594 84.410156 72.125 90.402344 61.59375 C 96.394531 51.0625 101.292969 42.15625 110.519531 36.6875 C 119.078125 31.609375 128.996094 30.773438 138.726562 30.257812 C 148.453125 29.742188 158.378906 29.433594 167.289062 25.292969 C 176.199219 21.15625 184.109375 12.457031 186.027344 0.164062 C 181.316406 6.78125 174.355469 10.066406 167.28125 11.472656 Z M 167.28125 11.472656 " fill-opacity="1" fill-rule="nonzero"/></g></g></g><g clip-path="url(#655353eca1)"><g clip-path="url(#739c934d4e)"><g clip-path="url(#537cea2a27)"><path fill="#37ed28" d="M 161.34375 26.167969 C 155.839844 26.789062 150.195312 26.402344 144.609375 26.335938 C 143.894531 26.328125 143.179688 26.320312 142.464844 26.324219 C 128.015625 26.394531 113.871094 30.335938 103.09375 41.785156 C 95.457031 49.847656 89.929688 60.519531 84.457031 70.953125 C 78.671875 81.980469 72.761719 93.15625 64.742188 101.832031 L 64.585938 102.027344 C 66.90625 100.300781 70.515625 98.367188 72.589844 96.269531 C 76.605469 92.210938 80.1875 87.359375 83.640625 82.398438 C 86.335938 78.546875 88.972656 74.617188 91.636719 70.867188 C 97.542969 62.550781 102.535156 55.132812 110.515625 50.105469 C 112.9375 48.578125 115.464844 47.367188 118.054688 46.378906 C 123.289062 44.394531 128.941406 43.429688 134.597656 42.667969 C 143.039062 41.546875 151.738281 40.792969 159.636719 37.777344 C 167.839844 34.644531 175.589844 28.441406 178.445312 18.558594 C 173.808594 23.359375 167.617188 25.476562 161.34375 26.167969 Z M 161.34375 26.167969 " fill-opacity="1" fill-rule="nonzero"/></g></g></g><g clip-path="url(#91e447d761)"><g clip-path="url(#87c8096373)"><g clip-path="url(#78314c7ac9)"><path fill="#0068a6" d="M 155.523438 41.964844 C 150.800781 41.949219 146.003906 41.273438 141.285156 40.792969 C 140.667969 40.730469 140.042969 40.667969 139.429688 40.613281 C 126.855469 39.554688 114.8125 41.734375 105.078125 51.222656 C 97.867188 58.238281 92.378906 67.359375 86.882812 76.132812 C 80.671875 86.050781 74.261719 96.054688 65.894531 103.75 L 65.816406 103.84375 C 68.121094 102.632812 71.0625 101.257812 73.210938 99.738281 C 77.265625 96.878906 81.03125 93.429688 84.65625 89.835938 C 87.507812 87.027344 90.28125 84.121094 93.007812 81.226562 C 98.785156 75.105469 103.921875 69.199219 110.65625 64.609375 C 112.679688 63.234375 114.765625 62.019531 116.890625 60.933594 C 121.148438 58.777344 125.835938 57.339844 130.625 56.171875 C 137.769531 54.4375 145.269531 53.273438 152.15625 51.359375 C 159.671875 49.265625 167.242188 45.519531 171.03125 38.050781 C 166.417969 41.03125 160.992188 41.972656 155.523438 41.964844 Z M 155.523438 41.964844 " fill-opacity="1" fill-rule="nonzero"/></g></g></g><g clip-path="url(#448894dfb7)"><g clip-path="url(#e092ce2bcc)"><g clip-path="url(#dddfeb6ae8)"><path fill="#00b1ff" d="M 138.171875 57.117188 C 126.882812 54.566406 116.351562 54.597656 107.261719 62.53125 C 100.453125 68.476562 94.980469 76.039062 89.523438 83.183594 C 82.820312 91.949219 75.972656 100.820312 67.253906 107.527344 C 73.75 105.527344 80.023438 102.578125 85.882812 99.144531 C 96.609375 92.871094 105.847656 84.53125 115.9375 77.351562 C 124.074219 71.570312 135.097656 68.253906 144.867188 66.808594 C 151.703125 65.796875 159.085938 64.460938 163.808594 59.402344 C 155.40625 61.578125 146.625 59.039062 138.171875 57.117188 Z M 138.171875 57.117188 " fill-opacity="1" fill-rule="nonzero"/></g></g></g><g clip-path="url(#d77cb154aa)"><g clip-path="url(#f64541c1fc)"><g clip-path="url(#748555ec20)"><path fill="#37ed28" d="M 97.457031 82.796875 C 96.378906 80.765625 93.433594 79.140625 91.464844 80.210938 C 65.785156 94.269531 35.6875 110.84375 3.496094 114.804688 C 3.496094 114.804688 2.253906 116.09375 2.523438 118.328125 C 2.792969 120.566406 3.09375 121.820312 3.09375 121.820312 C 3.09375 121.820312 5.832031 124.023438 12.226562 125.429688 C 12.378906 125.042969 12.527344 124.644531 12.675781 124.257812 C 12.785156 123.980469 12.953125 123.652344 13.316406 123.65625 C 13.597656 123.660156 13.886719 123.882812 14.011719 124.125 C 14.136719 124.367188 14.148438 124.621094 14.148438 124.878906 C 14.15625 125.183594 14.160156 125.503906 14.167969 125.808594 C 15.226562 125.992188 16.375 126.132812 17.605469 126.25 C 17.691406 125.773438 17.769531 125.296875 17.855469 124.820312 C 17.910156 124.515625 18.019531 124.15625 18.367188 124.109375 C 18.644531 124.070312 18.949219 124.253906 19.117188 124.484375 C 19.28125 124.710938 19.332031 124.980469 19.375 125.230469 C 19.445312 125.621094 19.523438 126 19.59375 126.386719 C 25.039062 126.648438 31.980469 126.066406 40.386719 123.476562 C 52.097656 119.871094 61.175781 113.703125 71.835938 108.316406 C 78.542969 104.921875 82.660156 102.464844 86.101562 99.976562 C 85.953125 99.226562 85.808594 98.472656 85.660156 97.722656 C 85.59375 97.378906 85.546875 96.941406 85.789062 96.675781 C 85.976562 96.46875 86.277344 96.472656 86.488281 96.605469 C 86.6875 96.742188 86.820312 96.984375 86.953125 97.214844 C 87.222656 97.714844 87.488281 98.214844 87.765625 98.710938 C 88.804688 97.898438 89.792969 97.046875 90.789062 96.105469 C 90.578125 95.5 90.371094 94.890625 90.167969 94.285156 C 90.050781 93.957031 89.953125 93.542969 90.15625 93.238281 C 90.324219 92.988281 90.617188 92.9375 90.839844 93.035156 C 91.0625 93.136719 91.226562 93.335938 91.375 93.550781 C 91.664062 93.933594 91.953125 94.304688 92.234375 94.6875 C 93.125 93.757812 93.910156 92.824219 94.582031 91.898438 C 94.277344 91.378906 93.980469 90.855469 93.675781 90.34375 C 93.511719 90.054688 93.335938 89.683594 93.492188 89.332031 C 93.609375 89.054688 93.894531 88.925781 94.128906 88.960938 C 94.363281 88.996094 94.554688 89.152344 94.75 89.304688 C 95.082031 89.585938 95.421875 89.855469 95.753906 90.136719 C 97.632812 86.933594 98.171875 84.136719 97.457031 82.796875 Z M 97.457031 82.796875 " fill-opacity="1" fill-rule="nonzero"/></g></g></g><g clip-path="url(#419489fa14)"><g clip-path="url(#9183cfc21b)"><g clip-path="url(#6f5c6e6289)"><path fill="#00b1ff" d="M 77.136719 83.636719 C 77.585938 82.773438 78.210938 82.140625 78.683594 81.316406 C 79.707031 79.269531 80.777344 77.5 81.824219 75.53125 C 83.152344 73.007812 84.519531 70.425781 86.222656 68.328125 C 84.839844 66.394531 83.523438 64.8125 82.570312 64.152344 C 81.515625 63.433594 80.441406 63.0625 79.453125 62.898438 C 77.878906 62.628906 76.46875 64.585938 76.921875 66.40625 C 77.589844 69.125 77.539062 73.039062 73.140625 75.644531 C 65.636719 80.082031 52.597656 76.367188 52.542969 76.355469 C 51.976562 76.191406 51.234375 71.253906 50.953125 70.582031 C 49.410156 66.8125 46.777344 67.488281 44.550781 69.425781 C 43.019531 70.761719 41.675781 72.695312 41.058594 74.273438 C 39.328125 78.722656 39.289062 83.761719 36.480469 87.625 C 33.972656 91.066406 30.757812 93.847656 27.855469 96.804688 C 22.277344 102.480469 17.214844 107.957031 13.644531 108.914062 C 10.066406 109.875 1.304688 110.730469 3.140625 115.816406 C 5.988281 123.679688 23.203125 121.695312 30.410156 120.828125 C 42.011719 119.429688 51.484375 112.800781 61.46875 107.765625 C 64.25 106.367188 67.75 104.570312 71.113281 102.542969 C 72.460938 96.277344 74.085938 90.121094 77.136719 83.636719 Z M 77.136719 83.636719 " fill-opacity="1" fill-rule="nonzero"/></g></g></g><g clip-path="url(#9d5b4c6712)"><g clip-path="url(#b7feef4c55)"><g clip-path="url(#7f55f0b962)"><path fill="#b3fa04" d="M 54.058594 99.792969 C 52.742188 98.855469 51.1875 98.597656 49.828125 97.726562 C 47.832031 96.445312 46.273438 94.988281 44.398438 93.691406 C 43.085938 92.78125 41.875 91.957031 40.429688 91.34375 C 38.683594 90.597656 36.992188 89.898438 35.324219 89.097656 C 33.6875 91.089844 31.832031 92.886719 29.996094 94.664062 C 31.789062 95.152344 33.59375 95.582031 35.292969 96.503906 C 36.796875 97.320312 38 98.375 39.554688 99.222656 C 40.179688 99.613281 40.792969 99.816406 41.46875 100.179688 C 41.914062 100.449219 42.152344 100.851562 42.550781 101.011719 C 44.734375 101.972656 46.628906 103.046875 48.289062 104.5625 C 50.070312 106.1875 51.707031 108.03125 53.503906 109.742188 C 54.027344 110.238281 54.578125 110.714844 55.140625 111.179688 C 57.257812 109.945312 59.332031 108.765625 61.441406 107.761719 C 61.800781 107.589844 62.179688 107.414062 62.554688 107.222656 C 61.605469 106.332031 60.617188 105.464844 59.621094 104.613281 C 57.746094 103 56.0625 101.230469 54.058594 99.792969 Z M 54.058594 99.792969 " fill-opacity="1" fill-rule="nonzero"/></g></g></g><g clip-path="url(#0b5050227c)"><g clip-path="url(#f9f2db8d10)"><g clip-path="url(#39fce4367d)"><path fill="#37ed28" d="M 53.175781 91.105469 C 52.191406 90.21875 50.34375 88.785156 49.113281 88.324219 C 45.402344 86.945312 42.191406 84.863281 38.570312 83.261719 C 38.074219 84.808594 37.441406 86.292969 36.472656 87.628906 C 36.105469 88.128906 35.726562 88.621094 35.332031 89.097656 C 36.992188 89.886719 38.078125 91.398438 39.828125 92.144531 C 41.265625 92.757812 42.503906 93.101562 43.816406 94.015625 C 45.691406 95.320312 47.832031 96.4375 49.828125 97.726562 C 51.1875 98.597656 52.753906 98.855469 54.058594 99.792969 C 56.0625 101.230469 57.746094 103 59.640625 104.613281 C 60.636719 105.460938 61.625 106.328125 62.570312 107.21875 C 64.519531 106.257812 66.648438 105.128906 68.820312 103.875 C 66.566406 101.660156 65.105469 99.019531 62.554688 97.066406 C 59.390625 94.664062 56.128906 93.769531 53.175781 91.105469 Z M 53.175781 91.105469 " fill-opacity="1" fill-rule="nonzero"/></g></g></g><g clip-path="url(#10ec11463b)"><g clip-path="url(#ce8916bf06)"><g clip-path="url(#bd99e79fa3)"><path fill="#b3fa04" d="M 86.214844 68.328125 C 84.511719 70.417969 83.144531 73.007812 81.816406 75.53125 C 80.777344 77.5 79.695312 79.273438 78.675781 81.320312 C 78.203125 82.140625 77.585938 82.773438 77.128906 83.636719 C 74.074219 90.121094 72.460938 96.277344 71.085938 102.535156 C 78.042969 98.320312 84.722656 93.152344 86.859375 91.058594 C 90.027344 87.96875 94.199219 81.941406 93.582031 80.148438 C 93.59375 80.15625 89.679688 73.160156 86.214844 68.328125 Z M 86.214844 68.328125 " fill-opacity="1" fill-rule="nonzero"/></g></g></g><g clip-path="url(#0747a97f8b)"><g clip-path="url(#313af3396f)"><g clip-path="url(#fbba2d73b6)"><path fill="#ffffff" d="M 77.957031 81.507812 C 75.269531 87.015625 73.160156 92.640625 71.765625 98.339844 C 71.707031 98.585938 71.839844 98.824219 72.054688 98.871094 C 72.15625 98.894531 72.25 98.875 72.339844 98.820312 C 72.449219 98.757812 72.535156 98.648438 72.570312 98.511719 C 73.949219 92.886719 76.011719 87.328125 78.652344 81.894531 C 80.90625 77.246094 83.535156 72.804688 86.433594 68.613281 C 86.273438 68.382812 86.109375 68.15625 85.953125 67.945312 C 82.960938 72.226562 80.269531 76.765625 77.957031 81.507812 Z M 77.957031 81.507812 " fill-opacity="1" fill-rule="nonzero"/></g></g></g><g clip-path="url(#92b4b15510)"><g clip-path="url(#eecef8b797)"><g clip-path="url(#97eb3e26ca)"><path fill="#ffffff" d="M 54.597656 109.8125 C 54.453125 109.875 54.285156 109.867188 54.160156 109.765625 C 53.804688 109.496094 53.429688 109.222656 53.042969 108.929688 C 47.703125 104.9375 40.347656 99.390625 34.261719 97.914062 C 34.015625 97.855469 33.867188 97.625 33.914062 97.398438 C 33.964844 97.171875 34.199219 97.039062 34.441406 97.09375 C 40.726562 98.597656 48.167969 104.195312 53.5625 108.226562 C 53.949219 108.511719 54.316406 108.785156 54.671875 109.054688 C 54.863281 109.199219 54.902344 109.46875 54.757812 109.664062 C 54.722656 109.738281 54.65625 109.78125 54.597656 109.8125 Z M 54.597656 109.8125 " fill-opacity="1" fill-rule="nonzero"/></g></g></g><g clip-path="url(#f86708f428)"><g clip-path="url(#fea98e08ab)"><g clip-path="url(#d96c7d6955)"><path fill="#ffffff" d="M 58.746094 103.980469 C 58.613281 104.050781 58.445312 104.042969 58.3125 103.953125 C 57.957031 103.691406 57.589844 103.425781 57.207031 103.140625 C 51.914062 99.25 44.617188 93.835938 38.59375 92.523438 C 38.359375 92.46875 38.199219 92.238281 38.253906 92.011719 C 38.308594 91.785156 38.539062 91.636719 38.773438 91.691406 C 44.992188 93.035156 52.367188 98.5 57.722656 102.421875 C 58.097656 102.695312 58.476562 102.972656 58.832031 103.230469 C 59.023438 103.367188 59.0625 103.644531 58.917969 103.847656 C 58.871094 103.90625 58.816406 103.957031 58.746094 103.980469 Z M 58.746094 103.980469 " fill-opacity="1" fill-rule="nonzero"/></g></g></g><g clip-path="url(#864ab80399)"><g clip-path="url(#84749a2cde)"><g clip-path="url(#d19eafc496)"><path fill="#ffffff" d="M 62.816406 97.972656 C 62.683594 98.042969 62.515625 98.042969 62.390625 97.949219 C 62.035156 97.699219 61.667969 97.433594 61.292969 97.15625 C 56.050781 93.363281 48.820312 88.085938 42.859375 86.921875 C 42.625 86.878906 42.464844 86.652344 42.519531 86.414062 C 42.5625 86.179688 42.792969 86.03125 43.035156 86.074219 C 49.183594 87.257812 56.5 92.582031 61.800781 96.410156 C 62.175781 96.6875 62.539062 96.945312 62.894531 97.195312 C 63.085938 97.335938 63.128906 97.613281 62.984375 97.8125 C 62.9375 97.890625 62.882812 97.941406 62.816406 97.972656 Z M 62.816406 97.972656 " fill-opacity="1" fill-rule="nonzero"/></g></g></g><g clip-path="url(#53d6ccbda4)"><g clip-path="url(#c8ae152ea9)"><g clip-path="url(#03a5adc549)"><path fill="#0068a6" d="M 39.160156 97.53125 C 46.605469 89.113281 50.839844 81.117188 52.625 76.382812 C 52.585938 76.367188 52.53125 76.355469 52.523438 76.359375 C 51.96875 76.199219 51.214844 71.257812 50.9375 70.582031 C 49.390625 66.8125 46.757812 67.492188 44.535156 69.425781 C 43 70.765625 41.65625 72.699219 41.042969 74.277344 C 39.3125 78.722656 39.273438 83.765625 36.460938 87.628906 C 33.957031 91.070312 30.742188 93.847656 27.839844 96.804688 C 26.105469 98.570312 24.421875 100.3125 22.824219 101.914062 C 24.289062 102.808594 31.242188 106.476562 39.160156 97.53125 Z M 39.160156 97.53125 " fill-opacity="1" fill-rule="nonzero"/></g></g></g><g clip-path="url(#ec704aa9ab)"><g clip-path="url(#e3cecc7283)"><g clip-path="url(#651fa0e15a)"><path fill="#0068a6" d="M 84.285156 86.878906 C 75.382812 87.460938 70.554688 86.839844 64.570312 93.585938 C 50.066406 109.917969 24.960938 126.257812 3.34375 112.925781 C 2.960938 113.683594 2.761719 114.800781 3.121094 115.808594 C 5.96875 123.675781 23.183594 121.6875 30.390625 120.820312 C 41.992188 119.421875 51.449219 112.851562 61.449219 107.761719 C 70.285156 103.269531 79.632812 97.847656 86.867188 91.058594 C 90.035156 88.089844 94.210938 81.9375 93.59375 80.148438 C 93.59375 80.148438 92.359375 78.054688 92.316406 77.972656 C 90.882812 81.695312 87.179688 86.5 84.285156 86.878906 Z M 84.285156 86.878906 " fill-opacity="1" fill-rule="nonzero"/></g></g></g><g clip-path="url(#7b48e85438)"><g clip-path="url(#b6aeae1907)"><g clip-path="url(#31085f0594)"><path fill="#00b1ff" d="M 27.457031 103.753906 C 28.960938 103.859375 30.484375 103.671875 31.980469 103.164062 C 32.3125 103.058594 32.640625 102.933594 32.96875 102.789062 C 35.214844 101.832031 37.417969 100.160156 39.492188 97.808594 C 43.527344 93.242188 47.015625 88.289062 49.628906 83.628906 C 51.09375 81.019531 52.257812 78.53125 53.035156 76.496094 C 52.714844 76.40625 52.53125 76.355469 52.523438 76.359375 C 52.453125 76.339844 52.378906 76.234375 52.296875 76.066406 C 51.546875 78.082031 50.371094 80.570312 48.886719 83.207031 C 46.292969 87.816406 42.824219 92.722656 38.808594 97.25 C 36.8125 99.496094 34.71875 101.09375 32.589844 102.011719 C 30.90625 102.738281 29.195312 103.046875 27.507812 102.9375 C 25.527344 102.808594 23.910156 102.109375 23.109375 101.625 C 22.910156 101.824219 22.710938 102.023438 22.519531 102.214844 C 23.164062 102.609375 24.933594 103.582031 27.457031 103.753906 Z M 27.457031 103.753906 " fill-opacity="1" fill-rule="nonzero"/></g></g></g><g clip-path="url(#e69bfeec88)"><g clip-path="url(#bb32cda5f1)"><g clip-path="url(#e34ff2f061)"><path fill="#00b1ff" d="M 48.425781 88.660156 C 44.425781 86.042969 42.414062 84.707031 38.375 82.003906 C 38.042969 81.785156 37.957031 81.335938 38.175781 81.011719 C 38.480469 80.574219 38.621094 80.351562 38.925781 79.921875 C 39.144531 79.597656 39.59375 79.503906 39.925781 79.722656 C 43.953125 82.398438 45.953125 83.714844 49.941406 86.300781 C 50.570312 86.707031 50.746094 87.566406 50.324219 88.222656 C 49.914062 88.878906 49.0625 89.074219 48.425781 88.660156 Z M 48.425781 88.660156 " fill-opacity="1" fill-rule="nonzero"/></g></g></g><g clip-path="url(#3ffebee2ea)"><g clip-path="url(#0ae3bb634a)"><g clip-path="url(#debf18b00a)"><path fill="#00b1ff" d="M 40.878906 98.015625 C 37.109375 95.460938 35.214844 94.15625 31.414062 91.523438 C 31.078125 91.289062 30.996094 90.855469 31.226562 90.546875 C 31.53125 90.132812 31.683594 89.929688 32 89.507812 C 32.230469 89.199219 32.6875 89.128906 33.023438 89.355469 C 36.808594 91.964844 38.703125 93.25 42.453125 95.78125 C 43.09375 96.210938 43.261719 97.058594 42.828125 97.679688 C 42.394531 98.300781 41.519531 98.445312 40.878906 98.015625 Z M 40.878906 98.015625 " fill-opacity="1" fill-rule="nonzero"/></g></g></g><g clip-path="url(#67661468ed)"><g clip-path="url(#4a85cac983)"><g clip-path="url(#79f034c787)"><path fill="#00b1ff" d="M 37.019531 102.421875 C 33.367188 99.921875 31.53125 98.648438 27.855469 96.082031 C 27.519531 95.84375 27.433594 95.40625 27.664062 95.105469 C 27.980469 94.707031 28.132812 94.503906 28.441406 94.101562 C 28.671875 93.800781 29.132812 93.75 29.476562 93.972656 C 33.144531 96.515625 34.976562 97.773438 38.617188 100.246094 C 39.257812 100.6875 39.425781 101.53125 38.992188 102.136719 C 38.546875 102.742188 37.660156 102.867188 37.019531 102.421875 Z M 37.019531 102.421875 " fill-opacity="1" fill-rule="nonzero"/></g></g></g><g clip-path="url(#5e489a5a17)"><g clip-path="url(#2ae9de1e3c)"><g clip-path="url(#c2c350cbf0)"><path fill="#00b1ff" d="M 32.347656 106.265625 C 29.117188 103.992188 27.488281 102.835938 24.242188 100.5 C 23.90625 100.257812 23.820312 99.824219 24.054688 99.535156 C 24.371094 99.144531 24.527344 98.953125 24.84375 98.554688 C 25.082031 98.261719 25.546875 98.21875 25.882812 98.464844 C 29.125 100.769531 30.742188 101.910156 33.96875 104.160156 C 34.621094 104.613281 34.785156 105.453125 34.332031 106.03125 C 33.894531 106.621094 32.996094 106.71875 32.347656 106.265625 Z M 32.347656 106.265625 " fill-opacity="1" fill-rule="nonzero"/></g></g></g><g clip-path="url(#01aedf5f04)"><g clip-path="url(#2a47c2680e)"><g clip-path="url(#fdd8146e48)"><path fill="#00b1ff" d="M 45.003906 93.660156 C 41.03125 90.898438 39.027344 89.492188 35.019531 86.644531 C 34.691406 86.40625 34.617188 85.964844 34.847656 85.65625 C 35.160156 85.242188 35.3125 85.03125 35.628906 84.609375 C 35.863281 84.289062 36.316406 84.222656 36.640625 84.457031 C 40.636719 87.269531 42.628906 88.660156 46.589844 91.398438 C 47.214844 91.832031 47.363281 92.6875 46.921875 93.320312 C 46.492188 93.949219 45.625 94.101562 45.003906 93.660156 Z M 45.003906 93.660156 " fill-opacity="1" fill-rule="nonzero"/></g></g></g><path fill="#ffffff" d="M 1.515625 154.488281 C 10.496094 151.894531 18.804688 148.257812 26.445312 143.582031 L 26.433594 143.585938 C 28.488281 142.3125 30.605469 140.734375 32.792969 138.851562 L 32.8125 138.835938 C 35.070312 136.933594 38.296875 133.613281 42.492188 128.867188 C 42.539062 128.816406 42.589844 128.765625 42.640625 128.71875 C 43.449219 127.980469 44.398438 127.476562 45.488281 127.207031 L 44.871094 127.480469 C 45.371094 127.148438 45.949219 126.972656 46.601562 126.953125 C 47.863281 126.914062 49.535156 127.542969 51.617188 128.835938 L 51.59375 128.820312 C 53.859375 130.183594 57.78125 133.125 63.359375 137.644531 C 64.210938 138.332031 64.339844 139.578125 63.652344 140.425781 C 62.964844 141.277344 61.71875 141.40625 60.867188 140.71875 C 55.433594 136.3125 51.664062 133.480469 49.554688 132.210938 L 49.53125 132.195312 C 48.125 131.324219 47.1875 130.894531 46.722656 130.910156 C 46.816406 130.90625 46.929688 130.863281 47.050781 130.78125 C 46.863281 130.90625 46.65625 130.996094 46.4375 131.050781 C 45.996094 131.160156 45.621094 131.355469 45.308594 131.640625 L 45.457031 131.492188 C 41.132812 136.378906 37.765625 139.835938 35.359375 141.863281 L 35.378906 141.847656 C 33.035156 143.867188 30.746094 145.570312 28.519531 146.949219 L 28.511719 146.957031 C 20.566406 151.820312 11.9375 155.597656 2.613281 158.292969 C 1.5625 158.59375 0.464844 157.988281 0.160156 156.9375 C -0.140625 155.890625 0.464844 154.792969 1.515625 154.488281 Z M 1.515625 154.488281 " fill-opacity="1" fill-rule="nonzero"/><path fill="#ffffff" d="M 56.800781 133.265625 C 60.226562 130.964844 62.402344 128.828125 65.820312 125.457031 L 66.078125 125.203125 C 69.050781 122.273438 74.554688 115.332031 82.675781 104.148438 C 84.0625 102.238281 86.070312 101.179688 88.265625 101.761719 L 87.6875 101.695312 C 88.023438 101.683594 88.359375 101.71875 88.6875 101.792969 C 89.960938 102.089844 91 102.984375 91.804688 104.085938 C 97.636719 112.070312 102.347656 117.9375 106.035156 121.710938 C 109.824219 125.59375 113.738281 128.933594 117.785156 131.746094 C 126.898438 138.078125 139.25 143.699219 154.96875 148.496094 C 156.011719 148.816406 156.601562 149.921875 156.28125 150.96875 C 155.964844 152.015625 154.859375 152.601562 153.8125 152.285156 C 137.855469 147.414062 125.085938 141.640625 115.527344 134.996094 C 111.253906 132.027344 107.152344 128.519531 103.203125 124.476562 C 99.3125 120.492188 94.464844 114.441406 88.609375 106.417969 C 88.113281 105.742188 87.796875 105.652344 87.792969 105.648438 C 87.792969 105.648438 87.808594 105.652344 87.835938 105.652344 C 87.640625 105.660156 87.445312 105.636719 87.257812 105.585938 C 87.097656 105.546875 86.617188 105.453125 85.878906 106.472656 C 77.796875 117.605469 72.101562 124.824219 68.855469 128.023438 L 68.597656 128.277344 C 65.195312 131.628906 62.78125 134.015625 59.007812 136.550781 C 58.101562 137.160156 56.871094 136.917969 56.261719 136.011719 C 55.652344 135.105469 55.894531 133.875 56.800781 133.265625 Z M 56.800781 133.265625 " fill-opacity="1" fill-rule="nonzero"/><g clip-path="url(#b0470ef004)"><path fill="#ffffff" d="M 103.378906 121.082031 C 106.324219 117.011719 112.867188 108.738281 120.65625 100.402344 C 122.8125 98.097656 125.421875 96.320312 128.183594 97.179688 C 129.269531 97.515625 130.363281 98.195312 131.371094 99.234375 C 138.695312 106.78125 146.222656 113.675781 153.984375 119.917969 C 160.246094 124.957031 170.800781 132.851562 185.746094 143.511719 C 186.636719 144.148438 186.84375 145.382812 186.207031 146.273438 C 185.574219 147.164062 184.335938 147.371094 183.449219 146.734375 C 168.484375 136.058594 157.855469 128.113281 151.503906 123.003906 C 143.605469 116.652344 135.957031 109.644531 128.53125 101.992188 C 127.914062 101.355469 127.371094 101.070312 127.007812 100.957031 C 126.675781 100.855469 125.628906 100.878906 123.550781 103.105469 L 123.546875 103.105469 C 115.871094 111.316406 109.4375 119.464844 106.582031 123.40625 C 105.941406 124.289062 104.703125 124.488281 103.820312 123.847656 C 102.933594 123.207031 102.738281 121.96875 103.378906 121.082031 Z M 103.378906 121.082031 " fill-opacity="1" fill-rule="nonzero"/></g><g clip-path="url(#b6afe64b31)"><path fill="#ffffff" d="M 55.265625 166.445312 C 63.289062 162.140625 72.269531 159.90625 82.175781 159.84375 C 86.246094 159.820312 101.582031 161.601562 118.089844 163.960938 C 121.546875 164.457031 124.398438 164.769531 126.632812 164.988281 C 132.53125 165.574219 138.640625 165.964844 144.96875 166.160156 C 146.058594 166.191406 146.917969 167.105469 146.886719 168.195312 C 146.851562 169.289062 145.941406 170.148438 144.847656 170.113281 C 138.433594 169.917969 132.234375 169.519531 126.242188 168.929688 C 123.972656 168.703125 121.058594 168.386719 117.527344 167.878906 C 100.894531 165.5 85.90625 163.78125 82.203125 163.800781 C 72.894531 163.859375 64.554688 165.953125 57.136719 169.929688 C 56.175781 170.449219 54.976562 170.085938 54.457031 169.125 C 53.941406 168.160156 54.304688 166.960938 55.265625 166.445312 Z M 55.265625 166.445312 " fill-opacity="1" fill-rule="nonzero"/></g></svg>